<svg xmlns="http://www.w3.org/2000/svg" viewBox="0 0 1440 400" preserveAspectRatio="none">
  <!-- Background wave -->
  <path fill="rgba(67, 56, 202, 0.1)" d="M0,128L48,154.7C96,181,192,235,288,234.7C384,235,480,181,576,165.3C672,149,768,171,864,186.7C960,203,1056,213,1152,192C1248,171,1344,117,1392,90.7L1440,64L1440,320L1392,320C1344,320,1248,320,1152,320C1056,320,960,320,864,320C768,320,672,320,576,320C480,320,384,320,288,320C192,320,96,320,48,320L0,320Z"></path>
  
  <!-- Middle wave -->
  <path fill="rgba(139, 92, 246, 0.15)" d="M0,160L48,170.7C96,181,192,203,288,213.3C384,224,480,224,576,213.3C672,203,768,181,864,181.3C960,181,1056,203,1152,208C1248,213,1344,203,1392,197.3L1440,192L1440,320L1392,320C1344,320,1248,320,1152,320C1056,320,960,320,864,320C768,320,672,320,576,320C480,320,384,320,288,320C192,320,96,320,48,320L0,320Z"></path>
  
  <!-- Front wave -->
  <path fill="rgba(15, 23, 42, 0.8)" d="M0,224L48,213.3C96,203,192,181,288,181.3C384,181,480,203,576,224C672,245,768,267,864,266.7C960,267,1056,245,1152,229.3C1248,213,1344,203,1392,197.3L1440,192L1440,320L1392,320C1344,320,1248,320,1152,320C1056,320,960,320,864,320C768,320,672,320,576,320C480,320,384,320,288,320C192,320,96,320,48,320L0,320Z"></path>
</svg> 